<svg width="622" height="206" viewBox="0 0 622 206" fill="none" xmlns="http://www.w3.org/2000/svg">
<path fill-rule="evenodd" clip-rule="evenodd" d="M0.0371112 28.6948C0.00760046 1.21029 -0.156261 0.393207 1.30918 0.26583C1.35733 0.261947 79.6571 0.26583 79.7044 0.26583C141.338 0.341169 156.076 42.1889 155.163 69.8646C153.828 110.329 128.102 123.648 115.549 129.14C114.103 129.772 114.194 130.179 115.055 131.435C129.131 151.972 129.366 151.702 143.722 172.149C165.776 203.562 166.966 203.938 165.77 204.727C165.667 204.796 129.065 204.814 128.684 204.711C127.334 204.344 127.397 204.123 118.051 190.811C104.469 171.466 80.8142 136.857 79.5592 136.19C78.1924 135.465 38.2589 135.926 34.6672 135.967C31.4823 136.005 33.0884 138.017 32.7793 177.039C32.5719 203.297 33.2375 204.755 30.7772 204.778C1.71146 205.04 0.538794 205.824 0.0153665 203.417C0.00449416 203.37 -0.0219103 60.2826 0.0371112 28.6948ZM32.7878 41.121C32.8274 97.3957 32.7365 97.3802 32.7754 104.817C32.7762 105.005 32.7855 106.761 33.9294 106.86C34.24 106.886 79.4598 106.881 79.7036 106.877C128.912 106.287 130.853 53.419 106.359 36.8655C95.8437 29.7589 95.1409 29.3076 34.6672 29.5904C31.998 29.6036 32.787 34.2217 32.7878 41.121ZM451.362 82.2869C451.366 42.9214 451.255 42.9843 451.285 39.5669C451.606 1.82463 450.539 0.818834 452.517 0.258068C454.482 -0.299592 479.621 0.213025 481.977 0.260403C484.331 0.308557 485.188 2.59666 486.637 4.62148C535.825 73.3488 534.571 74.141 583.845 142.774C586.321 146.221 589.155 152.032 588.847 145.972C588.825 145.535 588.8 2.36444 588.853 1.44562C588.955 -0.349294 596.085 0.253404 596.92 0.254181C620.196 0.272821 620.554 0.138458 621.071 0.65806C621.472 1.06194 621.466 6.44359 621.466 6.94766C621.364 102.76 621.872 202.973 621.116 204.338C620.713 205.068 589.463 204.973 588.274 204.396C587.198 203.874 550.298 150.577 531.929 124.827C486.452 61.0733 483.265 52.5321 483.92 59.0166C484.733 67.0584 484.147 187.606 484.091 198.788C484.072 202.864 485.329 204.755 481.207 204.761C452.253 204.8 452.108 204.798 451.631 204.276C451.117 203.713 451.372 203.548 451.362 82.2869ZM253.666 0.247971C275.16 0.265058 275.786 -0.112408 276.611 1.6561C286.189 22.1994 310.245 77.3868 313.124 83.9917C339.109 143.605 339.907 143.191 365.913 202.814C367.179 205.717 362.531 204.762 360.834 204.762L337.538 204.772C334.471 204.763 334.283 200.523 318.294 164.542C313.248 153.189 314.538 151.109 310.359 151.1C302.402 151.083 212.675 150.891 210.893 151.185C210.722 151.214 210.112 150.875 204.265 164.732C191.181 195.747 188.019 204.361 186.904 204.155C186.742 204.125 169.634 178.692 169.339 177.731C168.985 176.58 246.762 0.948538 246.826 0.878636C247.398 0.257288 253.116 0.248747 253.666 0.247971ZM281.768 78.332C280.978 76.4609 276.43 65.6821 271.832 54.9701C261.553 31.0264 261.869 29.8373 260.783 30.4393C260.368 30.6692 238.171 84.4181 236.229 89.1225C220.462 127.3 218.678 128.785 221.017 129.067C221.312 129.103 260.34 129.039 263.76 129.034C302.274 128.972 302.929 129.212 303.035 128.121C303.038 128.1 283.471 82.3148 281.768 78.332ZM389.569 0.237091C414.334 0.261168 415.089 -0.0735758 415.415 1.46504C415.536 2.03512 415.419 99.7995 415.489 135.875C415.499 141.285 415.616 201.781 415.449 203.498C415.306 204.965 414.519 204.808 391.898 204.772C391.479 204.772 387.066 204.765 386.711 204.09C386.038 202.814 386.444 28.4346 386.48 13.1604C386.505 2.39861 386.392 2.44133 386.543 1.52252C386.829 -0.221142 389.44 0.242528 389.569 0.237091Z" fill="url(#paint0_radial_2_85)"/>
<defs>
<radialGradient id="paint0_radial_2_85" cx="0" cy="0" r="1" gradientUnits="userSpaceOnUse" gradientTransform="translate(327.5 -63) rotate(90) scale(447.5 447.5)">
<stop stop-color="#4277C0"/>
<stop offset="0.490385" stop-color="#03285B"/>
<stop offset="1"/>
</radialGradient>
</defs>
</svg>
