<?xml version="1.0" encoding="UTF-8" standalone="no"?>
<!DOCTYPE svg PUBLIC "-//W3C//DTD SVG 1.1//EN" "http://www.w3.org/Graphics/SVG/1.1/DTD/svg11.dtd">
<svg width="100%" height="100%" viewBox="0 0 652 760" version="1.1" xmlns="http://www.w3.org/2000/svg" xmlns:xlink="http://www.w3.org/1999/xlink" xml:space="preserve" xmlns:serif="http://www.serif.com/" style="fill-rule:evenodd;clip-rule:evenodd;stroke-linejoin:round;stroke-miterlimit:2;">
    <g id="Fundo" transform="matrix(2.75,0,0,2.75,-278.377778,-368)">
        <path d="M111.913,177.501C111.875,142.114 111.664,141.062 113.551,140.898C113.613,140.893 214.437,140.898 214.498,140.898C293.861,140.995 312.839,194.875 311.663,230.508C309.944,282.607 276.818,299.756 260.654,306.826C258.792,307.64 258.909,308.164 260.018,309.781C278.143,336.223 278.445,335.875 296.931,362.202C325.33,402.647 326.862,403.131 325.322,404.147C325.189,404.235 278.058,404.259 277.568,404.126C275.829,403.653 275.91,403.369 263.875,386.229C246.387,361.322 215.927,316.762 214.311,315.904C212.551,314.97 161.13,315.564 156.505,315.617C152.404,315.665 154.472,318.256 154.074,368.498C153.807,402.306 154.664,404.183 151.496,404.212C114.069,404.549 112.559,405.559 111.885,402.46C111.871,402.399 111.837,218.171 111.913,177.501ZM154.085,193.5C154.136,265.955 154.019,265.935 154.069,275.51C154.07,275.752 154.082,278.013 155.555,278.14C155.955,278.174 214.183,278.167 214.497,278.163C277.861,277.403 280.36,209.334 248.82,188.021C235.28,178.871 234.375,178.29 156.505,178.654C153.068,178.671 154.084,184.617 154.085,193.5Z" style="fill:white;"/>
    </g>
</svg>
