<?xml version="1.0" encoding="UTF-8" standalone="no"?>
<!DOCTYPE svg PUBLIC "-//W3C//DTD SVG 1.1//EN" "http://www.w3.org/Graphics/SVG/1.1/DTD/svg11.dtd">
<svg width="100%" height="100%" viewBox="0 0 2334 812" version="1.1" xmlns="http://www.w3.org/2000/svg" xmlns:xlink="http://www.w3.org/1999/xlink" xml:space="preserve" xmlns:serif="http://www.serif.com/" style="fill-rule:evenodd;clip-rule:evenodd;stroke-linejoin:round;stroke-miterlimit:2;">
    <g id="Fundo" transform="matrix(2.75,0,0,2.75,-252.377778,-342)">
        <path d="M111.913,177.501C111.875,142.114 111.664,141.062 113.551,140.898C113.613,140.893 214.437,140.898 214.498,140.898C293.861,140.995 312.839,194.875 311.663,230.508C309.944,282.607 276.818,299.756 260.654,306.826C258.792,307.64 258.909,308.164 260.018,309.781C278.143,336.223 278.445,335.875 296.931,362.202C325.33,402.647 326.862,403.131 325.322,404.147C325.189,404.235 278.058,404.259 277.568,404.126C275.829,403.653 275.91,403.369 263.875,386.229C246.387,361.322 215.927,316.762 214.311,315.904C212.551,314.97 161.13,315.564 156.505,315.617C152.404,315.665 154.472,318.256 154.074,368.498C153.807,402.306 154.664,404.183 151.496,404.212C114.069,404.549 112.559,405.559 111.885,402.46C111.871,402.399 111.837,218.171 111.913,177.501ZM154.085,193.5C154.136,265.955 154.019,265.935 154.069,275.51C154.07,275.752 154.082,278.013 155.555,278.14C155.955,278.174 214.183,278.167 214.497,278.163C277.861,277.403 280.36,209.334 248.82,188.021C235.28,178.871 234.375,178.29 156.505,178.654C153.068,178.671 154.084,184.617 154.085,193.5ZM693.069,246.502C693.074,195.818 692.932,195.899 692.97,191.499C693.384,142.905 692.01,141.61 694.557,140.888C697.087,140.17 729.457,140.83 732.491,140.891C735.522,140.953 736.626,143.899 738.492,146.506C801.83,234.994 800.215,236.014 863.664,324.381C866.851,328.819 870.501,336.3 870.104,328.498C870.076,327.935 870.044,143.6 870.112,142.417C870.243,140.106 879.425,140.882 880.499,140.883C910.471,140.907 910.932,140.734 911.598,141.403C912.115,141.923 912.107,148.852 912.107,149.501C911.976,272.862 912.629,401.888 911.656,403.646C911.137,404.585 870.897,404.463 869.367,403.721C867.981,403.048 820.466,334.427 796.813,301.273C738.253,219.189 734.15,208.192 734.993,216.541C736.04,226.895 735.285,382.103 735.214,396.5C735.189,401.748 736.807,404.183 731.5,404.19C694.217,404.24 694.03,404.238 693.416,403.566C692.754,402.841 693.082,402.629 693.069,246.502ZM438.502,140.875C466.18,140.897 466.986,140.411 468.048,142.688C480.381,169.138 511.357,240.193 515.065,248.697C548.525,325.451 549.552,324.918 583.039,401.684C584.669,405.421 578.684,404.191 576.5,404.191L546.502,404.205C542.552,404.193 542.311,398.734 521.722,352.407C515.225,337.79 516.885,335.112 511.504,335.101C501.258,335.079 385.72,334.831 383.425,335.21C383.205,335.247 382.419,334.811 374.891,352.652C358.043,392.585 353.971,403.675 352.536,403.41C352.327,403.371 330.297,370.626 329.917,369.389C329.462,367.907 429.612,141.777 429.695,141.687C430.431,140.887 437.795,140.876 438.502,140.875ZM474.689,241.41C473.672,239.001 467.815,225.123 461.894,211.331C448.659,180.503 449.066,178.972 447.667,179.747C447.133,180.043 418.55,249.246 416.049,255.303C395.747,304.457 393.45,306.37 396.462,306.733C396.842,306.779 447.097,306.697 451.5,306.69C501.094,306.61 501.937,306.919 502.074,305.514C502.077,305.488 476.881,246.538 474.689,241.41ZM613.5,140.861C645.389,140.892 646.362,140.461 646.782,142.442C646.938,143.176 646.787,269.05 646.877,315.498C646.89,322.463 647.04,400.354 646.825,402.564C646.641,404.453 645.628,404.251 616.499,404.205C615.96,404.204 610.277,404.195 609.82,403.327C608.954,401.683 609.477,177.166 609.523,157.5C609.555,143.644 609.41,143.699 609.604,142.516C609.972,140.271 613.334,140.868 613.5,140.861Z" style="fill:white;"/>
    </g>
</svg>
